<svg t="1584632354051" class="icon" viewBox="0 0 1024 1024" version="1.1" xmlns="http://www.w3.org/2000/svg" p-id="4112" width="200" height="200"><path d="M424 64c198.823 0 360 161.177 360 360 0 85.693-29.94 164.392-79.931 226.208l-1.522 1.868 0.599 0.47a36.404 36.404 0 0 1 2.908 2.613l243.245 243.245c14.059 14.059 14.059 36.853 0 50.912-14.06 14.059-36.853 14.059-50.912 0L655.142 706.07a36.404 36.404 0 0 1-2.613-2.91l-0.47-0.598C589.965 753.457 510.548 784 424 784 225.177 784 64 622.823 64 424S225.177 64 424 64z m0 72c-159.058 0-288 128.942-288 288s128.942 288 288 288 288-128.942 288-288-128.942-288-288-288z m2 59c19.683 0 35.677 15.797 35.995 35.405L462 231v154.072h154c19.882 0 36 16.117 36 36 0 19.882-16.118 36-36 36H462v154.004c0 19.684-15.797 35.678-35.405 35.996l-0.595 0.004c-19.683 0-35.677-15.797-35.995-35.404l-0.005-0.596V457.071H236c-19.882 0-36-16.117-36-36 0-19.882 16.118-36 36-36l154 0.001V231c0-19.882 16.118-36 36-36z" p-id="4113" fill="#bfbfbf"></path></svg>